<svg width="133" height="134" viewBox="0 0 133 134" fill="none" xmlns="http://www.w3.org/2000/svg">
<path d="M80.7378 0C98.1301 0 115.565 0 132.957 0C132.957 1.74776 132.957 3.49551 132.957 5.24327C132.02 5.41378 131.082 5.5843 130.187 5.71218C126.179 6.26635 123.11 7.92885 122.428 12.2769C121.874 15.6872 121.277 19.1401 121.235 22.5503C121.064 53.3705 121.021 84.2333 121.064 115.054C121.064 117.27 121.448 119.657 122.215 121.746C124.048 126.606 128.183 128.098 133 128.268C133 129.846 133 131.423 133 133C116.162 132.957 99.2811 132.872 82.443 132.957C80.3115 132.957 79.5869 132.275 79.8426 130.272C79.9279 129.675 79.9705 129.078 80.0558 128.183C83.2529 128.183 86.3647 128.354 89.3913 128.14C93.9952 127.799 98.3433 126.265 99.9205 121.49C100.944 118.421 101.071 114.968 101.157 111.686C101.412 102.052 101.455 92.3753 101.54 82.7413C101.54 81.633 101.54 80.5247 101.54 78.9474C99.3237 80.6526 97.7038 82.1019 95.8708 83.2955C94.7625 83.9776 94.5494 84.7022 94.4641 85.9385C94.1231 90.7981 94.251 95.8282 92.9721 100.475C90.1586 110.705 84.0628 116.204 74.301 116.759C62.024 117.483 49.6619 117.185 37.2997 117.313C37.1718 117.313 37.0439 117.185 36.7881 117.057C36.7881 116.162 36.7881 115.181 36.7881 114.073C37.8112 114.073 38.7064 114.073 39.559 114.073C44.9301 113.988 47.1468 112.24 47.6157 106.869C48.1272 101.199 48.1699 95.5298 48.2551 89.8176C48.2551 89.1782 47.3599 88.3256 46.6779 87.8994C42.7987 85.5122 38.8769 83.2955 34.9978 80.9083C34.0173 80.3115 33.25 79.3311 32.1843 78.3933C32.0138 78.9474 31.8859 79.1606 31.8859 79.3737C32.0564 92.1622 32.099 104.993 32.4401 117.782C32.5253 121.704 34.3157 125.37 38.1522 126.606C41.5625 127.714 45.399 127.671 49.0651 128.013C50.5144 128.14 51.9212 127.799 51.9638 130.016C52.0064 131.892 51.9638 133.043 49.4061 133C33.7189 132.872 18.0744 132.915 2.38718 132.915C1.70513 132.915 1.02308 132.829 0.170512 132.787C0.170512 131.082 0.170512 129.547 0.170512 128.013C0.255768 127.97 0.298397 127.885 0.341025 127.885C1.02308 127.714 1.70513 127.544 2.42981 127.458C7.71571 126.606 10.9981 123.792 11.467 118.251C11.7228 115.181 12.2343 112.112 12.2769 109.086C12.4901 91.2244 12.6606 73.3205 12.7032 55.4593C12.7032 42.7135 12.5327 30.0103 12.3196 17.2644C12.2769 15.0904 11.9359 12.8311 11.2112 10.7849C10.2734 8.18462 8.78141 5.88269 5.41378 5.66955C3.66603 5.54167 1.91827 4.9875 0 4.60385C0 3.15449 0 1.6625 0 0.170513C17.3923 0.170513 34.8272 0.170513 52.2196 0.170513C52.3474 1.70513 52.4327 3.23974 52.5606 4.56122C48.1272 4.9875 43.9923 5.37115 39.8147 5.75481C35.9356 6.13846 33.8894 8.6109 33.25 12.149C32.6532 15.5593 32.3548 19.0122 32.2696 22.4651C32.0138 30.1381 31.9285 37.8112 31.8006 45.4843C31.8006 46.0811 31.9285 46.6353 32.0138 47.1042C37.4276 43.7792 42.6708 40.5394 48.6388 36.8734C48.2978 32.9942 47.9994 28.1772 47.4026 23.4455C47.1468 21.3141 45.8253 19.9074 43.4808 19.6516C41.6478 19.4811 39.7721 19.1827 37.8538 18.9269C37.8538 17.9038 37.8538 16.9234 37.8538 15.3888C48.8093 15.3888 59.6369 15.0904 70.3792 15.5167C75.7077 15.7298 80.7378 17.9038 84.617 21.6978C88.6667 25.6196 90.6276 30.6923 90.6702 36.3619C90.6702 39.1327 91.4801 41.1788 94.1231 42.6282C96.1692 43.7365 97.8317 45.5269 99.6647 46.9763C100.091 47.3173 100.645 47.5731 101.413 48.0846C101.498 46.9763 101.583 46.2942 101.583 45.6122C101.583 38.4933 101.668 31.3744 101.54 24.2554C101.455 20.3763 101.199 16.4971 100.603 12.7032C100.091 9.46346 98.4285 6.69263 94.7199 6.22372C90.8407 5.75481 86.8763 5.03013 82.9971 5.20064C80.2263 5.32853 80.0984 4.22019 80.2689 2.25929C80.3968 1.3641 80.6099 0.682051 80.7378 0ZM83.4234 89.0503C75.0683 91.1817 66.8837 91.7359 58.1449 90.7128C58.4433 96.8939 58.5712 102.691 59.0401 108.489C59.2532 110.833 60.6173 112.752 63.1324 113.476C70.2939 115.437 77.4555 111.984 80.5247 105.249C82.8692 100.219 83.1676 94.8904 83.4234 89.0503ZM83.125 84.2333C82.5708 79.459 81.8035 74.8978 78.9048 70.976C77.0718 68.5035 74.7699 66.7131 71.7859 66.4574C68.0772 66.159 64.3686 66.3295 60.6599 66.3295C59.1253 66.3295 58.4006 67.0115 58.4433 68.674C58.5285 72.3827 58.4433 76.0913 58.4433 79.8426C58.4433 82.3577 58.4433 84.8728 58.4433 87.4731C67.1394 88.8798 75.4093 88.7519 83.125 84.2333ZM58.4859 59.4237C62.2798 59.4237 65.8179 59.2958 69.3561 59.4663C72.2974 59.5942 74.301 58.1449 75.9208 55.9708C79.0327 51.7933 79.7574 46.9763 79.8426 41.9035C79.8853 40.4542 79.3737 39.8147 78.0522 39.3885C72.1269 37.3849 66.0737 37.8112 60.0205 38.1949C59.4663 38.2375 58.5712 39.2179 58.5712 39.7721C58.4859 46.209 58.4859 52.6032 58.4859 59.4237ZM79.8426 35.4667C79.6721 34.0599 79.7147 32.099 79.2032 30.266C77.5407 24.1276 75.4093 19.95 68.0772 18.7564C65.7753 18.3728 63.3455 18.7138 61.001 18.5006C59.0827 18.3301 58.4859 19.1827 58.4859 20.9305C58.5285 25.0228 58.5285 29.1577 58.4006 33.25C58.358 35.0404 59.0827 35.2535 60.6599 35.2109C67.0115 35.1683 73.2779 35.3388 79.8426 35.4667ZM48.3404 74.0878C48.3404 72.8942 48.3404 71.7433 48.3404 70.5497C48.3404 65.8179 48.3404 65.8179 43.6513 66.159C43.4808 66.159 43.2676 66.1163 43.1824 66.2016C42.7561 66.5853 42.0314 67.0542 42.074 67.3952C42.5429 72.2122 43.4381 76.9013 46.6353 80.7804C46.8484 81.0788 47.5305 81.292 47.7862 81.1641C48.0846 80.9936 48.2978 80.3968 48.3404 79.9705C48.383 78.0096 48.3404 76.0487 48.3404 74.0878ZM42.2019 59.0827C48.3404 59.9779 48.4256 59.9353 48.4256 54.3936C48.4256 54.0952 48.4256 53.7542 48.4256 53.4558C48.4256 50.4292 48.4256 47.4026 48.4256 44.376C48.1699 44.3333 47.9141 44.2907 47.6583 44.2054C43.7792 48.3404 42.5856 53.4984 42.2019 59.0827ZM91.608 59.5942C90.926 56.2692 90.2865 53.1147 89.6897 50.0029C86.7058 53.3705 83.9776 56.4397 81.2067 59.5942C84.3186 59.5942 87.5583 59.5942 91.608 59.5942ZM91.0965 66.6705C88.5388 66.6705 86.2369 66.6705 84.1907 66.6705C86.3221 68.7167 88.4962 70.8481 91.0965 73.3631C91.0965 70.5923 91.0965 68.674 91.0965 66.6705Z" fill="white"/>
</svg>
