<svg xmlns="http://www.w3.org/2000/svg" width="90" height="90" viewBox="0 0 90 90"><path d="M185.85 32.1C56.6 42-15.38 190.13 56.6 298.04c73.81 110.64 241.23 99.08 297.95-20.57C411.3 157.72 317.98 22 185.85 32.1m44.52 14.87C335.6 67.65 390.67 185.18 339.4 279.7c-50.4 92.95-180.25 110.7-253.46 34.66C-21.92 202.32 78.14 17.1 230.37 46.98m23.12 31.98c-7.87 2.58-16 9.75-20.02 17.67l-2.97 5.87-.3 27.25c-.21 18.12-.67 27.25-1.36 27.25-7.57 0-29.68-10.06-40.63-18.49-30.54-23.5-50.1-29.8-69.71-22.44-25.1 9.42-31.66 45.9-11.16 62.1l5.16 4.08.5 57.63c.49 56.2.55 57.73 2.64 62.24 8.67 18.76 32.43 24.94 49.4 12.85 2.78-1.98 3.02-2 6.18-.35 10.15 5.3 26.44 1.98 35.4-7.2 9.1-9.31 8.8-7.1 9.15-68.79l.31-53.87-3.79.67c-19.78 3.48-21.28 8.27-21.28 68.13-.01 53.05.22 51.44-7.5 51.44-6.74 0-6.51 2.18-6.51-62.22 0-47.16-.24-57.78-1.32-57.78-4.6 0-12.23 3.5-16.14 7.4-7.57 7.58-7.64 8.12-7.32 57.7l.28 43.4 2.75 5.88 2.76 5.88-5.08-.5c-5.36-.5-8.97-2.6-12.37-7.14-2.01-2.7-2.07-4-2.34-57.7l-.27-54.92 2.78-.02c19.67-.16 28.36-29.84 12.55-42.91C135.2 127.12 113 140.4 113 166.18c0 8.8-.35 9.14-4.7 4.57-16.62-17.52-3.66-46.9 21.41-48.54 13.3-.86 22.42 3.06 50.08 21.56 18.6 12.43 25.9 15.98 40.71 19.74l9 2.29.28 61.35c.35 75.02.1 77.03-11.25 88.38-9.56 9.55-27.8 13.47-42.56 9.15-8.3-2.44-14.22 2.37-7.76 6.3 17.46 10.62 50.24 4.41 67.54-12.79 18.03-17.93 18.6-20.72 19.01-92.44l.33-58.75H299v-7l-18.25-.01c-10.04 0-19.96-.3-22.05-.64l-3.79-.63.3-26.69.29-26.69 2.88-3.78c12.83-16.81 33.5-5.62 33.6 18.19L292 126h7.2l-.39-12.25c-.86-27.05-21.21-42.68-45.32-34.8m-104.34 74.13c9.99 5.35 4.28 23.33-8.4 26.46l-2.75.68v-9.64c0-15.04 4-21.32 11.15-17.5" fill-rule="evenodd" fill="#fff"/></svg>