<svg width="192" height="130" viewBox="0 0 192 130" fill="none" xmlns="http://www.w3.org/2000/svg"><path d="M188 43.8l3.9-4.5-10.4-8.4 6.5 12.9zM156.3 26.1l26.1 11.4-5.9-11.4h-20.2zM181.8 40.8l-27-12.6 13.7 33.5 13.3-21zM171.2 61.7l10.8-4.8-4.4-4.5-6.4 9.3zM151.2 26.8L135 44.3l27.6 10.5-11.3-28zM165 60.4L83.8 96.9 165 82.7V60.4zM163.3 85.3l-24 4.3 19.2 2.7 4.8-7zM133 91.1L97 94.6H133V91zM117 98.2l-3 22.2 12-21.7-9-.5zM118.6 119l-3.1 4h8.5l-5.4-4zM136.2 91.1l3.1 38.2 14.4-34.8-17.5-3.4zM152.4 129.5l-8.3-5.2-2.2 5.2h10.5zM82.7 100l-3.5 21 15.2-22.3-11.7 1.2zM89.4 123l-5-4-2.8 4h7.8zM20.3 129.5H28l19.8-34.1-27.5 34.1zM37.4 126l-5 3.5h8.8l-3.8-3.5zM163.3 58.3l-33.5-12.6L46 111.2l117.3-53zM85.6 77.1H59.5l-18.4 34.1 44.5-34zM31 99.5a64.4 64.4 0 0 0 21.3-14.2l2.5-5c-6.4 6-18.5 18.9-33.7 17.9-15.1-1-20-16.6-16-25 2.9-6.1 12-7.5 12.5-1.8.3 5 6.4 3.8 3.1-2.7C17.3 62-1.4 64.2 1.2 82.4c2.5 17.7 19.1 20 29.8 17.1zM126 45.5L97.6 28.2l17.8 25.3 10.4-8zM95.6 30l-7 44.8 25-19.2-18-25.5zM119 38.3l.7-11.5-12.4-6.2L119 38.3zM106.8 17.6l10.6 5.3 5.2-9-15.8 3.7zM104 1.8l-2.8 12L115 0l-11 1.8zM117.3 0L99.8 18.3 121.2 8 117.3 0zM103.5 19.3l-5.1 6 14.4 8.5-9.3-14.5zM87.5 65.4l-23.3 9.4H86l1.5-9.4z" fill="#fff"/></svg>