<svg width="132" height="88" viewBox="0 0 132 88" fill="none" xmlns="http://www.w3.org/2000/svg"><path d="M87.99.03A43.55 43.55 0 0 0 66 5.86 44.07 44.07 0 0 0 1.5 32.61a43.94 43.94 0 0 0 23.02 50.8 44.08 44.08 0 0 0 19.46 4.56A43.58 43.58 0 0 0 66 82.14a44.07 44.07 0 0 0 64.5-26.76 43.92 43.92 0 0 0-23.05-50.8A44.08 44.08 0 0 0 88 .02zm0 74.9a31.5 31.5 0 0 1-10.92-1.98 43.73 43.73 0 0 0 9.98-20.07H73.62a31.06 31.06 0 0 1-18.77 20.07A30.99 30.99 0 0 1 13.4 49.56 30.88 30.88 0 0 1 30.83 16a31.5 31.5 0 0 1 24.08-.92 43.73 43.73 0 0 0-10 19.95h13.44A31.2 31.2 0 0 1 66 22.17a30.05 30.05 0 0 1 11.13-7.27 31.01 31.01 0 0 1 41.4 23.45 30.91 30.91 0 0 1-17.4 33.57A31.01 31.01 0 0 1 88 74.82v.11z" fill="#fff"/></svg>