<svg width="90" height="90" viewBox="0 0 90 90" fill="none" xmlns="http://www.w3.org/2000/svg"><path fill-rule="evenodd" clip-rule="evenodd" d="M45 90a45 45 0 1 0 0-90 45 45 0 0 0 0 90zm9.9-30.1a12.04 12.04 0 0 0 19.2-9.66v-11.4a4.45 4.45 0 1 0-8.89 0v11.4a3.14 3.14 0 0 1-6.27 0v-11.4a4.45 4.45 0 1 0-8.9 0v11.4a3.14 3.14 0 0 1-4.88 2.6v9.3a12.08 12.08 0 0 0 8.92-2.24l.41-.31.41.3zM34.9 27.44l-.01 22.8a12.05 12.05 0 0 0 8.9 11.61V50.4 27.44a4.44 4.44 0 1 0-8.9 0zm-3 25.5a5.02 5.02 0 0 1-5.61-1.04 5.05 5.05 0 1 1 7.22-7.05V34.9a13.94 13.94 0 1 0 .49 26.75l.9-.28v.9h6.1a13.45 13.45 0 0 1-7.4-10.53c-.48.52-1.06.93-1.7 1.22z" fill="#fff"/></svg>