<svg width="45" height="36" viewBox="0 0 45 36" xmlns="http://www.w3.org/2000/svg"><path fill="currentColor" d="M39.6 0L45 4.6l-9.3 8.2c-.6.4-3.3 1.9-4.2 2.1-.7.2-2.9 1.7-4 2.5l-17.9 16 1.6 1.5L9.8 36l-4.5-3.9 1.4-1.4L8.3 32c7.6-7.3 13.8-12.7 16-14.7 2.6-2.5 2.4-2.4 3.3-3.8 1-1.3 1.5-2.8 1.7-3.2l1.5-1.8L39.6 0z M5.3 0L0 4.6c2.9 2.6 8.8 8 9.2 8.2.6.4 3.2 1.9 4.1 2.1a24 24 0 0 1 4 2.5l17.7 16-1.6 1.5 1.4 1.1 4.5-3.9-1.4-1.4-1.6 1.4c-7.5-7.3-13.6-12.7-15.8-14.7-2.6-2.5-2.4-2.4-3.3-3.8-.9-1.3-1.4-2.8-1.7-3.2l-1.4-1.8L5.3 0z"/></svg>