<svg xmlns="http://www.w3.org/2000/svg" width="24" height="24" viewBox="0 0 24 24" fill="currentColor"><path d="M0 24l1.7-6.2A11.9 11.9 0 0 1 20.5 3.5 12 12 0 0 1 6.4 22.4L0 24zm6.7-3.8A9.9 9.9 0 1 0 4 17.5l-1 3.7 3.7-1zM18 14.7l-.5-.3-2-1c-.3 0-.5-.1-.7.2l-1 1.1c-.1.2-.3.3-.6.1-.3-.1-1.3-.5-2.4-1.5a9 9 0 0 1-1.7-2c-.1-.3 0-.5.2-.6l.4-.6c.2-.1.2-.3.3-.5v-.5L9 7c-.2-.6-.4-.5-.6-.5h-.6c-.2 0-.5 0-.8.4s-1 1-1 2.5 1 2.8 1.2 3c.2.2 2.1 3.2 5.1 4.5l1.7.6a4 4 0 0 0 1.9.2c.5-.1 1.7-.8 2-1.5.2-.7.2-1.2.1-1.4z"/></svg>